#!OML:ASF H:\Terrain\Patient Classification 1\Terrain2\Thursday\justin.ASF
:FULLY-SPECIFIED
:DEGREES
3016
root -2.41945 20.3332 11.0326 1739.42 -83.8284 58.0028
lowerback 9.06105 -1.11871 -7.81891
upperback 2.71097 -2.23623 1.07407
thorax -1.90455 -1.15751 5.75948
lowerneck -13.3168 -1.83692 -8.6462
upperneck 28.4726 -2.75449 5.53753
head 11.6809 -1.74196 3.11757
rclavicle 4.08502e-014 3.18055e-014
rhumerus -34.9186 -12.0074 -76.1986
rradius 29.1109
rwrist -8.75988
rhand -19.8933 12.7419
rfingers 7.12502
rthumb 6.44283 -17.1401
lclavicle 4.08502e-014 3.18055e-014
lhumerus -27.1754 -3.49289 84.1443
lradius 49.2599
lwrist 8.19993
lhand -19.3145 18.9019
lfingers 7.12502
lthumb 7.00161 48.7661
rfemur -37.0027 -12.9401 18.9269
rtibia 43.521
rfoot 11.9843 -0.00281746
rtoes 5.09327
lfemur 12.0186 3.77216 -26.0283
ltibia 17.9699
lfoot -12.8388 -19.31
ltoes 20.6772
3017
root -2.55104 20.2799 11.0217 1739.97 -83.7114 57.4411
lowerback 8.74886 -1.07487 -7.83823
upperback 2.74594 -2.15294 1.00686
thorax -1.71002 -1.12494 5.67898
lowerneck -13.2381 -1.91171 -8.53566
upperneck 28.4513 -2.8768 5.46625
head 11.6646 -1.79438 3.05408
rclavicle 4.30369e-014 5.56597e-015
rhumerus -34.9436 -11.5587 -76.4947
rradius 29.0858
rwrist -8.94141
rhand -19.6754 12.4958
rfingers 7.12502
rthumb 6.65314 -17.3797
lclavicle 4.30369e-014 5.56597e-015
lhumerus -27.2906 -3.88844 84.0381
lradius 49.6429
lwrist 7.97847
lhand -18.9503 19.0558
lfingers 7.12502
lthumb 7.35311 48.908
rfemur -36.6108 -13.1875 19.0151
rtibia 41.6258
rfoot 13.2897 0.333463
rtoes 6.33955
lfemur 12.3456 3.78213 -25.9643
ltibia 18.3549
lfoot -12.7871 -19.8317
ltoes 22.2309
3018
root -2.68282 20.2274 11.0243 1740.19 -83.2435 57.0331
lowerback 8.6514 -1.1465 -7.95224
upperback 2.82606 -2.2524 0.865814
thorax -1.558 -1.18446 5.59784
lowerneck -13.2808 -1.91081 -8.64434
upperneck 28.524 -2.84033 5.44272
head 11.7006 -1.79374 3.07045
rclavicle 1.49089e-014 -3.18055e-015
rhumerus -35.0539 -11.5651 -76.5679
rradius 29.1709
rwrist -8.66554
rhand -19.7839 12.2469
rfingers 7.12502
rthumb 6.54843 -17.6318
lclavicle 1.49089e-014 -3.18055e-015
lhumerus -27.3861 -3.64406 83.9682
lradius 49.8364
lwrist 7.35567
lhand -18.521 18.5254
lfingers 7.12502
lthumb 7.76752 48.3627
rfemur -36.0568 -13.5616 18.5993
rtibia 39.9216
rfoot 14.5869 0.357901
rtoes 7.20571
lfemur 12.9142 3.54023 -26.3568
ltibia 18.6604
lfoot -12.6593 -20.1431
ltoes 22.7668
3019
root -2.81915 20.177 11.0214 1740.16 -82.9184 56.9323
lowerback 8.48757 -1.18697 -8.12313
upperback 2.87253 -2.30447 0.884644
thorax -1.40196 -1.21977 5.71123
lowerneck -13.2973 -1.8766 -8.90983
upperneck 28.6299 -2.70661 5.3741
head 11.7386 -1.77369 3.11118
rclavicle 1.2424e-014 1.59028e-014
rhumerus -35.0505 -11.5947 -76.4369
rradius 29.0627
rwrist -8.24247
rhand -20.0328 12.2749
rfingers 7.12502
rthumb 6.30815 -17.6111
lclavicle 1.2424e-014 1.59028e-014
lhumerus -27.4774 -3.22234 84.1789
lradius 50.0045
lwrist 6.90134
lhand -18.5185 18.0471
lfingers 7.12502
lthumb 7.76995 47.8843
rfemur -35.4711 -13.3426 18.229
rtibia 38.3416
rfoot 15.7868 -0.172353
rtoes 7.37178
lfemur 13.4547 3.21633 -26.7129
ltibia 18.9364
lfoot -12.6762 -19.9814
ltoes 23.0535
3020
root -2.9592 20.1243 11.0076 1740 -82.6976 57.0123
lowerback 8.25291 -1.17762 -8.46013
upperback 2.88197 -2.2943 0.992562
thorax -1.24332 -1.22376 6.00571
lowerneck -13.2768 -1.90096 -9.10184
upperneck 28.7218 -2.65045 5.20403
head 11.7686 -1.7937 3.08949
rclavicle -4.1049e-014 -8.74653e-015
rhumerus -35.051 -11.4794 -76.2573
rradius 28.9604
rwrist -8.05241
rhand -19.5746 12.5769
rfingers 7.12502
rthumb 6.75052 -17.2955
lclavicle -4.1049e-014 -8.74653e-015
lhumerus -27.7056 -2.98164 84.3944
lradius 50.2615
lwrist 6.73653
lhand -18.7903 17.9234
lfingers 7.12502
lthumb 7.50759 47.7702
rfemur -34.8954 -13.1155 18.0257
rtibia 36.7749
rfoot 17.0445 -0.347635
rtoes 6.50877
lfemur 13.8643 2.93408 -26.9339
ltibia 19.3731
lfoot -12.7525 -19.9066
ltoes 24.6284
3021
root -3.09707 20.0723 10.9927 1739.8 -82.5625 57.121
lowerback 8.054 -1.14646 -8.7138
upperback 2.88371 -2.251 1.08941
thorax -1.12245 -1.20919 6.24088
lowerneck -13.1944 -1.95127 -9.27658
upperneck 28.7095 -2.64507 5.06709
head 11.7496 -1.82804 3.06832
rclavicle 2.76311e-014 -1.66979e-014
rhumerus -35.1735 -11.1271 -76.2442
rradius 29.0006
rwrist -8.19945
rhand -19.1042 12.8665
rfingers 7.12502
rthumb 7.20454 -16.9909
lclavicle 2.76311e-014 -1.66979e-014
lhumerus -28.0938 -3.15004 84.5594
lradius 50.6121
lwrist 6.90187
lhand -18.7682 17.9475
lfingers 7.12502
lthumb 7.52886 47.7935
rfemur -34.2631 -12.9837 17.9173
rtibia 35.172
rfoot 18.3793 -0.487662
rtoes 6.96207
lfemur 14.1736 2.72108 -27.0474
ltibia 20.0309
lfoot -13.2791 -19.9109
ltoes 25.1531
3022
root -3.23625 20.0211 10.9854 1740.68 -82.7006 56.1746
lowerback 7.78511 -1.13579 -8.46381
upperback 2.91325 -2.18883 1.18158
thorax -0.959962 -1.18536 6.18083
lowerneck -13.1437 -1.98066 -9.48578
upperneck 28.7085 -2.65307 5.11573
head 11.7444 -1.84907 3.12177
rclavicle -2.19657e-014 7.15625e-015
rhumerus -35.3155 -10.9804 -76.3178
rradius 29.0271
rwrist -8.19232
rhand -19.3154 12.9533
rfingers 7.12502
rthumb 7.00074 -16.911
lclavicle -2.19657e-014 7.15625e-015
lhumerus -28.3979 -3.1931 84.6716
lradius 50.9342
lwrist 6.94361
lhand -18.4517 17.9776
lfingers 7.12502
lthumb 7.83437 47.8124
rfemur -33.6178 -12.3933 17.9836
rtibia 33.6359
rfoot 19.6554 -0.993671
rtoes 7.78702
lfemur 14.432 2.66341 -26.8163
ltibia 20.7342
lfoot -13.8405 -19.7872
ltoes 24.3322
3023
root -3.37964 19.9709 10.9831 1741.84 -82.8812 54.9284
lowerback 7.45945 -1.10104 -7.96902
upperback 2.98955 -2.07511 1.19842
thorax -0.738895 -1.13755 5.89597
lowerneck -13.1741 -2.0147 -9.58782
upperneck 28.7801 -2.70089 5.19915
head 11.7859 -1.87284 3.16573
rclavicle -2.17669e-014 -1.35174e-014
rhumerus -35.3963 -11.4054 -76.2474
rradius 28.9323
rwrist -7.74785
rhand -19.4323 12.9507
rfingers 7.12502
rthumb 6.88785 -16.9172
lclavicle -2.17669e-014 -1.35174e-014
lhumerus -28.5215 -3.05287 84.7054
lradius 50.9826
lwrist 6.50069
lhand -18.3167 17.7689
lfingers 7.12502
lthumb 7.96466 47.5988
rfemur -32.9311 -11.5977 18.013
rtibia 32.2105
rfoot 20.8338 -1.39109
rtoes 7.43553
lfemur 14.7114 2.72534 -26.5097
ltibia 21.4508
lfoot -14.5526 -19.5491
ltoes 21.6677
3024
root -3.52919 19.9189 10.9745 1741.85 -82.7797 54.6242
lowerback 7.30026 -1.03887 -7.83051
upperback 3.13378 -1.96927 1.10883
thorax -0.526138 -1.09811 5.70728
lowerneck -13.19 -2.06203 -9.58946
upperneck 28.807 -2.78068 5.24451
head 11.8075 -1.90317 3.17265
rclavicle 1.88845e-014 1.59028e-015
rhumerus -35.3968 -11.2469 -76.5224
rradius 28.8549
rwrist -7.89113
rhand -19.2786 12.7973
rfingers 7.12502
rthumb 7.03618 -17.0658
lclavicle 1.88845e-014 1.59028e-015
lhumerus -28.6175 -3.21769 84.6744
lradius 50.8966
lwrist 6.45356
lhand -18.6578 17.4442
lfingers 7.12502
lthumb 7.63549 47.2864
rfemur -31.9574 -11.1084 17.7736
rtibia 30.8517
rfoot 21.995 -1.57244
rtoes 7.72799
lfemur 15.2279 2.70971 -26.5106
ltibia 22.2387
lfoot -15.4845 -19.3431
ltoes 19.1594
3025
root -3.68595 19.8633 10.9536 1742.93 -82.8504 53.3295
lowerback 7.06935 -0.998171 -7.7871
upperback 3.17299 -1.89036 1.16859
thorax -0.368723 -1.06639 5.73209
lowerneck -13.1007 -2.11489 -9.52587
upperneck 28.9271 -2.87137 5.15665
head 11.8427 -1.95485 3.11757
rclavicle -3.45885e-014 2.14687e-014
rhumerus -35.539 -10.2066 -77.0231
rradius 28.9131
rwrist -8.90574
rhand -19.1881 12.4716
rfingers 7.12502
rthumb 7.12354 -17.3886
lclavicle -3.45885e-014 2.14687e-014
lhumerus -28.9801 -3.3676 84.6987
lradius 50.9409
lwrist 6.71732
lhand -19.3469 17.2486
lfingers 7.12502
lthumb 6.97032 47.1139
rfemur -31.0517 -10.4705 17.8133
rtibia 29.6628
rfoot 23.0589 -1.90801
rtoes 9.13676
lfemur 15.7036 2.58012 -26.2103
ltibia 23.0038
lfoot -15.7086 -19.6698
ltoes 20.8716
